<?xml version="1.0" encoding="utf-8"?>
<!-- Generator: Adobe Illustrator 19.1.0, SVG Export Plug-In . SVG Version: 6.00 Build 0)  -->
<svg version="1.1" xmlns="http://www.w3.org/2000/svg" xmlns:xlink="http://www.w3.org/1999/xlink" x="0px" y="0px"
	 viewBox="-112.8 -36 257.5 104" enable-background="new -112.8 -36 257.5 104" xml:space="preserve">
<g id="Calque_2">
</g>
<g id="Calque_1" xmlns:sketch="http://www.bohemiancoding.com/sketch/ns">
	<g>
		<path fill="#FAFAFA" d="M-30.4,52.8h9.4c-0.7-2.5-0.8-5-0.8-8V33.1c0-8.3-2.2-13-7.2-15l-2.8-1.2l2.7-1.3
			c4.8-2.2,7.1-6.9,7.1-14.3v-6c0-11.4-4.9-16.2-16.5-16.2h-16.8v73.7h9.4V21.7h5.5c6.3,0,9.2,3.4,9.2,11v12
			C-31.1,49.7-30.8,51.3-30.4,52.8z M-39.7,13.4h-6v-26.1h7.1c5,0,7.4,3,7.4,9.2V4C-31.2,10.4-34,13.4-39.7,13.4z"/>
		<g opacity="0.5">
			<path fill="#FAFAFA" d="M-33.1,54.9c-0.7-2-1.1-3.3-1.1-9.6v-12c0-7.4-2.7-8.8-7-8.8h-3.3l0,0.9l0,0c5.5,0,7.8,0.3,7.9,11.5v12
				c0,6.2,0.4,5.7,1.1,7.6h12.2c-0.4-0.9-0.6,0-0.8-0.9h-8.8L-33.1,54.9"/>
			<path fill="#FAFAFA" d="M-37,11c1.8-1,2.6-3,2.6-6.4v-7.5c0-6.1-2.5-7-5.2-7h-4.9V-9h1.7c4.3,0,6.1,4.2,6.1,9.6v7.5
				C-36.7,9.3-36.8,10.2-37,11z"/>
			<polygon fill="#FAFAFA" points="-58.2,55.6 -58.2,-18.1 -60.6,-18.1 -60.6,56.5 -48.6,56.5 -48.6,55.6 			"/>
		</g>
	</g>
	<g>
		<path fill="#FAFAFA" d="M18.5,38.9l2.1,13.9H30L18.2-20.9H2.9L-8.9,52.8h8.3l2.1-13.9H18.5z M9.9-17.7l7.3,48.9H2.6L9.9-17.7z"/>
		<g>
			<polygon opacity="0.5" fill="#FAFAFA" points="9.1,-2.2 7.6,7.4 10.9,29.6 13.8,29.6 			"/>
			<polygon opacity="0.5" fill="#FAFAFA" points="17.8,55.6 15.7,41.7 2.5,41.7 2.1,42.6 13.2,42.6 15.3,56.5 27.4,56.5 27,55.6 			
				"/>
			<polygon opacity="0.5" fill="#FAFAFA" points="-12.4,55.6 -0.6,-18.1 -2.4,-18.1 -14.6,56.5 -3.6,56.5 -3.2,55.6 			"/>
		</g>
	</g>
	<g>
		<polygon fill="#FAFAFA" points="86.9,-20.9 79.5,51.6 72.3,-20.9 63.1,-20.9 56.2,51.1 48.5,-20.9 39.5,-20.9 47.7,52.8 
			61.8,52.8 67.4,1 72.9,52.8 86.5,52.8 94.7,-20.9 		"/>
		<g>
			<polygon opacity="0.5" fill="#FAFAFA" points="78.6,30.2 83.6,-18.1 81.6,-18.1 77.6,20.3 			"/>
			<polygon opacity="0.5" fill="#FAFAFA" points="70.1,55.6 66.5,22.3 65.1,35 67.6,56.5 83.5,56.5 83.8,55.6 			"/>
			<polygon opacity="0.5" fill="#FAFAFA" points="55.2,29.8 59.8,-18.1 57.8,-18.1 54.1,19.9 			"/>
			<polygon opacity="0.5" fill="#FAFAFA" points="44.9,55.6 36.6,-18.1 33.9,-18.1 42.4,56.5 58.9,56.5 59.2,55.6 			"/>
		</g>
	</g>
	<g>
		<path fill="#FAFAFA" d="M126.4-20.9h-17.7v73.7h17.7c11,0,16.6-5.9,16.6-17.5V-3.4C143-15,137.4-20.9,126.4-20.9z M133.6,35.8
			c0,5.8-2.5,8.7-7.4,8.7h-8.1v-57.2h8.1c4.9,0,7.4,2.9,7.4,8.7V35.8z"/>
		<g opacity="0.5">
			<path fill="#FAFAFA" d="M128,42.4c1.5-0.7,2.6-2.3,2.6-6.1V-3.3c0-5.8-2.6-6.5-5.2-6.5h-5.9V-9h2.6c3.8,0,6.2,1.2,6.1,9.2v39.7
				C128.2,40.9,128.1,41.7,128,42.4z"/>
			<path fill="#FAFAFA" d="M125.6,55.6h-19.9v-73.7h-2.4v74.6h19c6,0,10.5,0.1,13.5-3.1C133,54.8,129.6,55.6,125.6,55.6z"/>
		</g>
	</g>
	<g>
		<polygon fill="#FAFAFA" points="-69.3,-20.9 -78.3,-20.9 -96.2,16.9 -96.2,-20.9 -105.6,-20.9 -105.6,52.8 -96.2,52.8 -96.1,30 
			-91,20.5 -78.6,52.8 -69.1,52.8 -85.3,11.7 		"/>
		<g>
			<polygon opacity="0.5" fill="#FAFAFA" points="-108.6,55.6 -108.6,-18.1 -111,-18.1 -111,56.5 -99,56.5 -99,55.6 			"/>
			<polygon opacity="0.5" fill="#FAFAFA" points="-81,55.6 -92.2,26.4 -94.3,30.4 -83.6,56.5 -71.3,56.5 -72.3,55.6 			"/>
		</g>
		<polygon opacity="0.5" fill="#FAFAFA" points="-94.9,8 -81.9,-18.7 -84.2,-18.7 -94.9,3.9 		"/>
	</g>
</g>
</svg>
